<?xml version="1.0" encoding="iso-8859-1"?>
<!-- Uploaded to: SVG Repo, www.svgrepo.com, Generator: SVG Repo Mixer Tools -->
<!DOCTYPE svg PUBLIC "-//W3C//DTD SVG 1.1//EN" "http://www.w3.org/Graphics/SVG/1.1/DTD/svg11.dtd">
<svg fill="#000000" version="1.1" id="Capa_1" xmlns="http://www.w3.org/2000/svg" xmlns:xlink="http://www.w3.org/1999/xlink" 
	 width="80px" height="80px" viewBox="0 0 603.454 603.454"
	 xml:space="preserve">
<g>
	<g>
		<g>
			<path d="M21.704,423.441l28.375,23.177c9.964,8.139,22.534,12.621,35.395,12.621c16.877,0,32.678-7.495,43.351-20.562
				l49.557-60.671l130.402,106.515c2.107,1.721,4.358,3.225,6.718,4.501c8.654,5.187,18.632,7.983,28.789,7.983
				c16.877,0,32.678-7.495,43.35-20.562l120.935-148.056l1.714,1.4c10.125,8.271,22.853,12.826,35.836,12.826
				c15.001,0,29.692-6.096,40.306-16.726c10.677-10.693,16.545-24.95,16.523-40.144l-0.188-125.104
				c-0.002-1.191-0.031-3.01-0.253-5.235c-1.341-13.49-7.638-25.925-17.729-35.003c-10.001-8.997-22.906-13.953-36.34-13.953
				c-1.78,0-3.582,0.089-5.356,0.265c-2.423,0.239-4.368,0.612-5.62,0.873l-123.593,25.706c-10.82,2.25-20.621,7.555-28.341,15.341
				c-7.145,7.207-12.201,16.249-14.624,26.151c-2.422,9.902-2.111,20.259,0.9,29.95c3.253,10.47,9.498,19.7,18.059,26.691
				l2.306,1.884l-61.29,75.036l-129.31-105.273c-10.277-8.367-23.232-12.975-36.479-12.977c-17.446-0.001-33.775,7.75-44.8,21.267
				L13.5,342.282c-9.731,11.914-14.249,26.932-12.703,42.265S9.768,413.693,21.704,423.441z M46.696,369.362L153.494,238.44
				c2.957-3.625,7.26-5.504,11.599-5.503c3.319,0,6.66,1.1,9.435,3.358l152.301,123.992c2.437,1.99,5.375,2.96,8.294,2.96
				c3.805,0,7.577-1.646,10.173-4.822l98.856-121.027c4.585-5.613,3.752-13.881-1.862-18.467l-25.32-20.682
				c-8.552-6.985-5.181-20.765,5.629-23.013l123.598-25.707c0.366-0.077,0.734-0.146,1.107-0.183
				c0.383-0.038,0.764-0.056,1.142-0.056c5.835,0,10.851,4.438,11.44,10.367c0.035,0.348,0.041,0.698,0.041,1.048l0.188,125.103
				c0.012,8.295-6.788,13.966-13.989,13.966c-2.996,0-6.062-0.982-8.736-3.166l-24.729-20.198c-2.437-1.991-5.374-2.96-8.294-2.96
				c-3.804,0-7.578,1.646-10.172,4.822L354.462,449.343c-2.595,3.176-6.367,4.821-10.171,4.821c-2.919,0-5.857-0.969-8.295-2.96
				l-0.111,0.138L183.807,327.124c-2.759-2.254-6.083-3.351-9.388-3.351c-4.306,0-8.577,1.863-11.513,5.458l-67.261,82.346
				c-2.594,3.177-6.367,4.822-10.171,4.822c-2.919,0-5.857-0.97-8.294-2.96l-28.375-23.177
				C42.45,385.073,41.507,375.715,46.696,369.362z"/>
			<path d="M344.291,497.505c-10.21,0-20.254-2.785-29.046-8.055c-2.379-1.286-4.665-2.818-6.777-4.542L178.452,378.709
				l-49.241,60.284c-10.768,13.185-26.71,20.746-43.738,20.746c-12.976,0-25.658-4.522-35.711-12.733l-28.375-23.177
				C9.349,413.997,1.86,400.063,0.3,384.597c-1.559-15.466,2.991-30.606,12.813-42.631l106.794-130.918
				c11.12-13.633,27.588-21.451,45.184-21.451c13.365,0.001,26.433,4.65,36.798,13.089l128.923,104.958l60.658-74.262l-1.919-1.567
				c-8.637-7.054-14.938-16.366-18.22-26.93c-3.038-9.776-3.353-20.225-0.908-30.217c2.444-9.99,7.546-19.114,14.754-26.385
				c7.79-7.856,17.678-13.208,28.595-15.479l123.593-25.706c1.26-0.262,3.219-0.639,5.673-0.881
				c1.788-0.177,3.607-0.267,5.405-0.267c13.557,0,26.581,5,36.674,14.081c10.185,9.162,16.538,21.708,17.893,35.326
				c0.225,2.255,0.253,4.096,0.255,5.284l0.188,125.104c0.021,15.328-5.898,29.71-16.67,40.499
				c-10.705,10.723-25.525,16.872-40.659,16.872c-13.099,0-25.938-4.595-36.152-12.938l-1.326-1.084L388.028,476.76
				C377.259,489.943,361.318,497.505,344.291,497.505z M178.311,377.303l0.387,0.315L309.1,484.133
				c2.063,1.685,4.297,3.182,6.64,4.449c8.656,5.187,18.522,7.923,28.551,7.923c16.727,0,32.385-7.428,42.962-20.378
				l121.251-148.442l2.102,1.717c10.036,8.198,22.651,12.713,35.52,12.713c14.87,0,29.433-6.043,39.952-16.579
				c10.582-10.599,16.398-24.729,16.377-39.79l-0.188-125.104c-0.002-1.167-0.03-2.975-0.25-5.187
				c-1.329-13.37-7.567-25.686-17.565-34.681c-9.91-8.915-22.697-13.824-36.006-13.824c-1.766,0-3.551,0.088-5.308,0.262
				c-2.406,0.237-4.329,0.607-5.567,0.865l-123.593,25.706c-10.725,2.23-20.437,7.487-28.087,15.203
				c-7.081,7.142-12.093,16.104-14.494,25.918c-2.4,9.816-2.092,20.08,0.893,29.683c3.224,10.376,9.412,19.523,17.897,26.453
				l2.692,2.2l-0.315,0.387l-61.606,75.423l-0.387-0.315L201.258,203.46c-10.188-8.294-23.031-12.863-36.163-12.864
				c-17.297,0-33.484,7.685-44.413,21.083L13.888,342.599c-9.653,11.817-14.125,26.697-12.592,41.898s8.893,28.895,20.725,38.557
				l28.375,23.177c9.875,8.066,22.333,12.509,35.079,12.509c16.727,0,32.386-7.428,42.963-20.379L178.311,377.303z M344.292,454.664
				c-2.96,0-5.858-0.978-8.216-2.762l-0.118,0.145L183.491,327.512c-2.556-2.089-5.777-3.238-9.072-3.238
				c-4.333,0-8.388,1.922-11.125,5.274l-67.261,82.346c-2.598,3.182-6.446,5.006-10.559,5.006c-3.126,0-6.185-1.091-8.611-3.072
				L48.488,390.65c-3.176-2.595-5.152-6.271-5.564-10.352c-0.411-4.081,0.791-8.077,3.385-11.253l106.798-130.922
				c2.948-3.615,7.316-5.688,11.983-5.688c3.542,0,7.004,1.232,9.753,3.471l152.301,123.992c2.249,1.837,5.082,2.848,7.979,2.848
				c3.811,0,7.377-1.69,9.786-4.639l98.855-121.027c4.404-5.391,3.601-13.359-1.791-17.763l-25.32-20.682
				c-4.106-3.354-5.875-8.638-4.615-13.789s5.268-9.021,10.459-10.102l123.598-25.707c0.383-0.08,0.77-0.153,1.16-0.191
				c6.67-0.652,12.476,4.199,13.128,10.759c0.037,0.363,0.044,0.731,0.044,1.097l0.188,125.102
				c0.006,3.873-1.467,7.483-4.145,10.165c-2.73,2.734-6.501,4.303-10.345,4.303c-3.296,0-6.427-1.134-9.053-3.278l-24.729-20.198
				c-2.247-1.836-5.08-2.847-7.978-2.847c-3.812,0-7.378,1.69-9.784,4.638L354.85,449.659
				C352.25,452.84,348.403,454.664,344.292,454.664z M335.924,450.499l0.389,0.317c2.247,1.837,5.081,2.848,7.979,2.848
				c3.81,0,7.376-1.69,9.783-4.638l139.732-171.071c2.598-3.181,6.446-5.005,10.56-5.005c3.127,0,6.186,1.091,8.61,3.073
				l24.729,20.198c2.445,1.997,5.357,3.053,8.42,3.053c3.58,0,7.093-1.461,9.637-4.009c2.489-2.493,3.857-5.851,3.853-9.457
				l-0.188-125.102c0-0.334-0.005-0.667-0.038-0.999c-0.599-6.015-5.924-10.472-12.036-9.864c-0.355,0.035-0.705,0.102-1.054,0.175
				L422.7,175.726c-4.81,1-8.523,4.587-9.69,9.359c-1.168,4.773,0.471,9.668,4.276,12.777l25.32,20.682
				c5.818,4.752,6.686,13.352,1.934,19.17l-98.857,121.027c-2.599,3.182-6.448,5.006-10.56,5.006c-3.127,0-6.185-1.091-8.61-3.072
				l-152.3-123.992c-2.571-2.093-5.81-3.246-9.119-3.246c-4.369,0-8.454,1.939-11.211,5.319L47.084,369.679
				c-2.426,2.969-3.55,6.705-3.165,10.52c0.385,3.815,2.232,7.252,5.202,9.677l28.375,23.178c2.248,1.836,5.082,2.847,7.978,2.847
				c3.811,0,7.377-1.69,9.784-4.639l67.261-82.346c2.928-3.585,7.266-5.642,11.9-5.642c3.524,0,6.971,1.229,9.705,3.463
				l151.688,123.9L335.924,450.499z"/>
		</g>
	</g>
</g>
</svg>